# xmcd CD database file
#
# Track frame offsets:
#	150
#	34335
#	65723
#	98824
#	134044
#	172839
#	205774
#	251585
#
# Disc length: 3749 seconds
#
# Revision: 0
# Processed by: cddbd v1.5.2PL0 Copyright (c) Steve Scherf et al.
# Submitted via: CDex 1.70beta2
#
DISCID=720ea308
DTITLE=Eric Alexander Quartet - Chim Chim Cheree
DYEAR=2009
DGENRE=Jazz
TTITLE0=You Don't Know What Love Is
TTITLE1=Dear Lord
TTITLE2=On The Misty Night
TTITLE3=Chim Chim Cheree
TTITLE4=Pursuance
TTITLE5=Afro Blue
TTITLE6=The Night Has A Thousand Eyes
TTITLE7=Wise One
EXTD=YEAR: 2009
EXTT0=
EXTT1=
EXTT2=
EXTT3=
EXTT4=
EXTT5=
EXTT6=
EXTT7=
PLAYORDER=
